# xmcd CD database file
#
# Track frame offsets:
#	150
#	9363
#	28576
#	42485
#	47501
#	59027
#	67439
#	80543
#	85691
#	91644
#	105441
#	118860
#	128309
#	147754
#	150463
#	154049
#	168055
#	173335
#	179942
#	189178
#	194746
#	208112
#	219577
#	229101
#	232466
#	247548
#	264124
#	271074
#	280420
#	282639
#	294577
#	299857
#	314966
#
# Disc length: 4371 seconds
#
# Revision: 0
# Processed by: cddbd v1.5.2PL0 Copyright (c) Steve Scherf et al.
# Submitted via: CDex 1.50
#
DISCID=e9111121
DTITLE=Pierre-Gérard Verny et Frédéric Smektala - Jazz N'Faust
DYEAR=2007
DGENRE=Jazz
TTITLE0=Texte 1 - Exposition
TTITLE1=Où est ma vie
TTITLE2=Siebel et Faust
TTITLE3=Texte 2 - L'arrivée de Phélès
TTITLE4=La chanson de Phélès
TTITLE5=Le Pacte
TTITLE6=Le Contrat
TTITLE7=Texte 3 - L'arrivée chez Margot
TTITLE8=L'espoir - L'invitation chez Margot
TTITLE9=C'est le plus beau jour de ta vie
TTITLE10=L'arrivée chez Margot - Le contrat
TTITLE11=Le Succès - La Victoire
TTITLE12=Parce que c'est toi
TTITLE13=Texte 4 - L'arrivée aux studios
TTITLE14=L'arrivée aux studios
TTITLE15=Les studios de Méphisto
TTITLE16=Parce que c'est toi
TTITLE17=La Victoire
TTITLE18=L'Ambition
TTITLE19=Texte 5 - Enfer et Damnation
TTITLE20=Au diable
TTITLE21=Où est ma vie
TTITLE22=Le coeur des enfers
TTITLE23=Texte 6 - La révélation
TTITLE24=L'issue
TTITLE25=T'imagine pas
TTITLE26=Le rachat
TTITLE27=La Provocation
TTITLE28=Texte 7 - L'issue
TTITLE29=Le Duel
TTITLE30=L'issue
TTITLE31=Au delà des lois
TTITLE32=Sur le chemin du ciel
EXTD=YEAR: 2007
EXTT0=
EXTT1=
EXTT2=
EXTT3=
EXTT4=
EXTT5=
EXTT6=
EXTT7=
EXTT8=
EXTT9=
EXTT10=
EXTT11=
EXTT12=
EXTT13=
EXTT14=
EXTT15=
EXTT16=
EXTT17=
EXTT18=
EXTT19=
EXTT20=
EXTT21=
EXTT22=
EXTT23=
EXTT24=
EXTT25=
EXTT26=
EXTT27=
EXTT28=
EXTT29=
EXTT30=
EXTT31=
EXTT32=
PLAYORDER=
